<?xml version="1.0" encoding="UTF-8" standalone="no"?>
<!-- Created with Inkscape (http://www.inkscape.org/) -->

<svg
   width="210mm"
   height="297mm"
   viewBox="0 0 210 297"
   version="1.1"
   id="svg5"
   inkscape:version="1.1.1 (3bf5ae0d25, 2021-09-20)"
   sodipodi:docname="drawing.svg"
   xmlns:inkscape="http://www.inkscape.org/namespaces/inkscape"
   xmlns:sodipodi="http://sodipodi.sourceforge.net/DTD/sodipodi-0.dtd"
   xmlns="http://www.w3.org/2000/svg"
   xmlns:svg="http://www.w3.org/2000/svg">
  <sodipodi:namedview
     id="namedview7"
     pagecolor="#ffffff"
     bordercolor="#666666"
     borderopacity="1.0"
     inkscape:pageshadow="2"
     inkscape:pageopacity="0.0"
     inkscape:pagecheckerboard="0"
     inkscape:document-units="mm"
     showgrid="false"
     inkscape:zoom="0.72337262"
     inkscape:cx="660.79361"
     inkscape:cy="772.07789"
     inkscape:window-width="1920"
     inkscape:window-height="1001"
     inkscape:window-x="2391"
     inkscape:window-y="756"
     inkscape:window-maximized="1"
     inkscape:current-layer="layer1" />
  <defs
     id="defs2">
    <marker
       style="overflow:visible;"
       id="Arrow1Lend"
       refX="0.0"
       refY="0.0"
       orient="auto"
       inkscape:stockid="Arrow1Lend"
       inkscape:isstock="true">
      <path
         transform="scale(0.8) rotate(180) translate(12.5,0)"
         style="fill-rule:evenodd;fill:context-stroke;stroke:context-stroke;stroke-width:1.0pt;"
         d="M 0.0,0.0 L 5.0,-5.0 L -12.5,0.0 L 5.0,5.0 L 0.0,0.0 z "
         id="path5281" />
    </marker>
  </defs>
  <g
     inkscape:label="Capa 1"
     inkscape:groupmode="layer"
     id="layer1">
    <path
       style="fill:#ffffff;fill-rule:evenodd;stroke:#ffffff;stroke-width:0.499999"
       d="m 53.767241,119.60468 51.664099,-17.09945 v 0"
       id="path857" />
    <path
       style="fill:#000000;fill-rule:evenodd;stroke:#ffffff;stroke-width:0.499999"
       d="M 48.829433,124.81681 83.485529,107.16872"
       id="path1005" />
    <path
       style="fill:#000000;fill-rule:evenodd;stroke:#ffffff;stroke-width:0.499999"
       d="m 54.041563,144.29372 25.329126,18.5625"
       id="path1155" />
    <path
       style="fill:#000000;fill-rule:evenodd;stroke:#000000;stroke-width:0.499999;fill-opacity:0.03125;stroke-opacity:1"
       d="M 53.584358,136.61268 98.024629,102.41379 123.35375,120.70197 74.067116,157.4612 Z"
       id="path1270" />
    <path
       style="fill:#000000;fill-opacity:0.03125;fill-rule:evenodd;stroke:#000000;stroke-width:0.499999;stroke-opacity:1"
       d="m 74.067116,157.4612 -0.18288,15.45352 -20.299877,-19.93412 -10e-7,-16.36792"
       id="path2054"
       sodipodi:nodetypes="cccc" />
    <path
       style="fill:#000000;fill-opacity:0.03125;fill-rule:evenodd;stroke:#000000;stroke-width:0.499999;stroke-opacity:1"
       d="M 73.884236,172.91472 125.73122,133.77801"
       id="path2306" />
    <path
       style="fill:#000000;fill-opacity:0.03125;fill-rule:evenodd;stroke:#000000;stroke-width:0.499999;stroke-opacity:1"
       d="M 48.817146,170.37507 48.55851,151.62411"
       id="path2421" />
    <path
       style="fill:#000000;fill-opacity:0.03125;fill-rule:evenodd;stroke:#000000;stroke-width:0.499999;stroke-opacity:1"
       d="m 48.817146,170.37507 5.366652,5.94858"
       id="path2423" />
    <path
       style="fill:#000000;fill-opacity:0.03125;fill-rule:evenodd;stroke:#000000;stroke-width:0.499999;stroke-opacity:1"
       d="m 48.817146,170.37507 8.082309,-5.43131"
       id="path2425" />
    <path
       style="fill:#000000;fill-opacity:0.03125;fill-rule:evenodd;stroke:#000000;stroke-width:0.499999;stroke-opacity:1"
       d="m 60.714305,166.49556 c -3.584231,3.1362 0.806002,-0.806 -1.616464,1.61646 -0.324009,0.32401 -0.692732,0.60004 -1.034534,0.90522 -0.261716,0.23368 -0.495218,0.50073 -0.775902,0.71124 -0.79452,0.59589 -0.775901,0.14366 -0.775901,0.51727"
       id="path2544" />
    <path
       style="fill:#000000;fill-opacity:0.03125;fill-rule:evenodd;stroke:#000000;stroke-width:0.499999;stroke-opacity:1"
       d="m 57.481379,167.5301 c 0.732367,0.80164 1.320478,1.70165 1.939756,2.58633 0.723987,1.03427 0.711242,0.56645 0.711242,1.03454"
       id="path2546" />
    <path
       style="fill:#000000;fill-opacity:0.03125;fill-rule:evenodd;stroke:#000000;stroke-width:0.499999;stroke-opacity:1"
       d="m 43.579809,150.07231 c 0.562454,-0.11249 0.105508,-0.0565 0.84056,0 0.494144,0.038 1.113398,-0.004 1.551802,0.25863 0.173188,0.10392 -0.4905,0.45632 -0.581924,0.51727 -0.290674,0.19379 -0.543203,0.44835 -0.84056,0.64659 -0.05671,0.0378 -0.135533,0.0296 -0.193977,0.0647 -0.121661,0.073 -0.195884,0.25959 -0.323292,0.3233 -0.03904,0.0195 -0.164086,-0.0299 -0.193974,0 -0.01524,0.0152 0.01926,0.055 0,0.0647 -0.03856,0.0193 -0.08842,-0.0136 -0.129318,0 -0.184364,0.0615 -0.599784,0.38518 -0.775901,0.51727 -0.03449,0.0258 0.08647,-0.005 0.129315,0 0.172702,0.0192 0.34688,0.0306 0.517269,0.0647 0.15386,0.0308 0.298749,0.0986 0.452609,0.12932 0.217321,0.0435 0.486341,0 0.711242,0 0.474163,0 0.948325,0 1.422488,0"
       id="path2550" />
    <path
       style="fill:#000000;fill-opacity:0.03125;fill-rule:evenodd;stroke:#000000;stroke-width:0.499999;stroke-opacity:1"
       d="m 55.7356,174.8365 c 0.122719,0.17844 0.15272,0.50352 0.387954,0.58193 0.165102,0.055 0.545065,-0.002 0.646583,-0.12932 0.04039,-0.0505 -0.02402,-0.13394 0,-0.19397 0.02265,-0.0566 0.0955,-0.0786 0.129318,-0.12932 0.07039,-0.10559 0.06466,-0.39048 0.06466,-0.51727 0,-0.0431 0,0.0862 0,0.12932 0,0.23708 0,0.47416 0,0.71124 0,0.12538 0.07549,1.11528 0,1.22851 -0.185016,0.27752 -0.05053,0.0461 -0.258636,0.12932 -0.526777,0.21071 0.121896,0.0665 -0.38795,0.19398 -0.244735,0.0612 -0.58178,0 -0.840561,0"
       id="path2552" />
    <path
       style="fill:#000000;fill-opacity:0.03125;fill-rule:evenodd;stroke:#c40000;stroke-width:0.499999;stroke-opacity:1"
       d="m 70.930343,154.66306 -0.129318,5.94858 2.650998,2.45702 3.685532,-2.19839 0.06466,-5.62528 -3.426899,-3.49156 z"
       id="path2667" />
    <path
       style="fill:#000000;fill-opacity:0.03125;fill-rule:evenodd;stroke:#c40000;stroke-width:0.499999;stroke-opacity:1"
       d="m 66.598225,136.42937 5.172678,-4.07348 3.750191,3.49156 -5.04336,3.55621 z"
       id="path2962" />
    <path
       style="fill:#000000;fill-opacity:0.03125;fill-rule:evenodd;stroke:#c40000;stroke-width:0.49999897;stroke-opacity:1;stroke-miterlimit:4;stroke-dasharray:0.49999897,0.99999795;stroke-dashoffset:0"
       d="m 70.477734,139.40366 -0.193977,5.23734 4.590751,-3.10361 0.646586,-5.68994 v 0"
       id="path3077" />
    <path
       style="fill:#000000;fill-opacity:0.03125;fill-rule:evenodd;stroke:#c40000;stroke-width:0.49999897;stroke-opacity:1;stroke-miterlimit:4;stroke-dasharray:0.49999897,0.99999795;stroke-dashoffset:0"
       d="m 70.283757,144.641 -4.267459,-3.49156 0.581927,-4.72007"
       id="path3079" />
    <path
       style="fill:#000000;fill-opacity:0.03125;fill-rule:evenodd;stroke:#c4b400;stroke-width:0.3;stroke-miterlimit:4;stroke-dasharray:none;stroke-dashoffset:0;stroke-opacity:1"
       d="M 48.817146,170.37507 70.54239,137.52857"
       id="path3194" />
    <path
       style="fill:#000000;fill-opacity:0.03125;fill-rule:evenodd;stroke:#c4b400;stroke-width:0.3;stroke-miterlimit:4;stroke-dasharray:none;stroke-dashoffset:0;stroke-opacity:1"
       d="M 48.817146,170.37507 74.067116,157.4612"
       id="path3471" />
    <path
       style="fill:#000000;fill-opacity:0.03125;fill-rule:evenodd;stroke:#0286fd;stroke-width:0.3;stroke-miterlimit:4;stroke-dasharray:none;stroke-dashoffset:0;stroke-opacity:1"
       d="m 63.559276,146.12814 6.33653,-9.1815"
       id="path3586" />
    <ellipse
       style="fill:#000000;fill-opacity:0.03125;fill-rule:evenodd;stroke:#0286fd;stroke-width:0.3;stroke-miterlimit:4;stroke-dasharray:none;stroke-dashoffset:0;stroke-opacity:1"
       id="path4365"
       cx="94.184113"
       cy="209.67395"
       rx="22.494457"
       ry="14.721983" />
    <ellipse
       style="fill:#000000;fill-opacity:0.03125;fill-rule:evenodd;stroke:#0286fd;stroke-width:0.3;stroke-miterlimit:4;stroke-dasharray:none;stroke-dashoffset:0;stroke-opacity:1"
       id="path4365-6"
       cx="93.635468"
       cy="224.48738"
       rx="22.494457"
       ry="14.721983" />
    <path
       style="fill:#000000;fill-opacity:0.03125;fill-rule:evenodd;stroke:#0286fd;stroke-width:0.3;stroke-miterlimit:4;stroke-dasharray:none;stroke-dashoffset:0;stroke-opacity:1"
       d="m 71.598212,209.39963 -0.640085,14.72198"
       id="path4504" />
    <path
       style="fill:#000000;fill-opacity:0.03125;fill-rule:evenodd;stroke:#0286fd;stroke-width:0.3;stroke-miterlimit:4;stroke-dasharray:none;stroke-dashoffset:0;stroke-opacity:1"
       d="m 116.67857,209.49107 -0.64009,16.18504"
       id="path4506" />
    <path
       style="fill:#000000;fill-opacity:0.03125;fill-rule:evenodd;stroke:#0286fd;stroke-width:0.3;stroke-miterlimit:4;stroke-dasharray:none;stroke-dashoffset:0;stroke-opacity:1"
       d="m 38.953818,189.09975 -12.070196,69.67795 153.072038,7.31529 2.37747,-90.52649 z"
       id="path4508" />
    <path
       style="fill:#000000;fill-opacity:0.03125;fill-rule:evenodd;stroke:#000000;stroke-width:0.7;stroke-miterlimit:4;stroke-dasharray:none;stroke-dashoffset:0;stroke-opacity:1"
       d="M 94.91564,169.5314 91.98953,277.61454"
       id="path4623" />
    <path
       style="fill:#000000;fill-opacity:0.03125;fill-rule:evenodd;stroke:#000000;stroke-width:0.7;stroke-miterlimit:4;stroke-dasharray:none;stroke-dashoffset:0;stroke-opacity:1"
       d="m 94.91564,169.5314 c 0.06096,0 0.182882,-0.061 0.182882,0 0,0.94274 -0.470228,1.36174 -0.91441,2.19458 -0.256588,0.4811 -0.535795,0.95415 -0.731526,1.46306 -0.347797,0.90427 -0.0058,0.74304 -0.365765,1.46305 -0.380555,0.76111 0.01262,-0.1955 -0.365763,0.18288 -0.129317,0.12932 0.04435,0.37123 0,0.54865 -0.116631,0.46652 -0.731528,0.93079 -0.731528,1.28017"
       id="path5139" />
    <path
       style="fill:#000000;fill-opacity:0.03125;fill-rule:evenodd;stroke:#000000;stroke-width:0.7;stroke-miterlimit:4;stroke-dasharray:none;stroke-dashoffset:0;stroke-opacity:1"
       d="m 94.91564,169.5314 c 0.548645,0.18288 1.204452,0.17508 1.645935,0.54865 0.416235,0.3522 0.499362,0.9697 0.731528,1.46305 0.930326,1.97694 1.463054,3.5467 1.463054,5.66934"
       id="path5141" />
    <path
       style="fill:#000000;fill-opacity:0.03125;fill-rule:evenodd;stroke:#000000;stroke-width:0.7;stroke-miterlimit:4;stroke-dasharray:none;stroke-dashoffset:0;stroke-opacity:1"
       d="m 88.880541,271.9452 c 1.334024,-0.14465 2.010879,-1.19816 2.926107,-2.0117 0.747416,-0.66437 1.67186,-1.12321 2.377464,-1.82883 0.261051,-0.26104 0.731528,-0.15968 0.731528,-0.54864"
       id="path5143" />
    <path
       style="fill:#000000;fill-opacity:0.03125;fill-rule:evenodd;stroke:#000000;stroke-width:0.7;stroke-miterlimit:4;stroke-dasharray:none;stroke-dashoffset:0;stroke-opacity:1"
       d="m 88.514776,267.00739 c 0.304805,0.061 0.636387,0.0439 0.914411,0.18288 0.270078,0.13504 3.460049,2.62972 3.657634,2.92611 0.184616,0.27691 0.09292,0.79348 0.548645,1.09728 0.315976,0.21066 1.826993,0.36396 1.828819,0.36578 0.114525,0.11451 -0.0074,0.35835 0.182882,0.54864"
       id="path5145" />
    <path
       style="fill:#000000;fill-opacity:0.03125;fill-rule:evenodd;stroke:#000000;stroke-width:0.7;stroke-miterlimit:4;stroke-dasharray:none;stroke-dashoffset:0;stroke-opacity:1"
       d="m 103.51108,266.82451 c -0.33256,3.23493 -2.89722,5.55376 -3.657633,8.59544"
       id="path5147" />
    <path
       style="fill:#000000;fill-opacity:0.03125;fill-rule:evenodd;stroke:#000000;stroke-width:0.7;stroke-miterlimit:4;stroke-dasharray:none;stroke-dashoffset:0;stroke-opacity:1"
       d="m 103.51108,266.82451 c 0.91441,0.18288 2.1087,-0.1347 2.74323,0.54864 1.99195,2.14516 2.54237,7.4622 3.84052,10.05851"
       id="path5149" />
    <path
       style="fill:#000000;fill-opacity:0.03125;fill-rule:evenodd;stroke:#000000;stroke-width:0.7;stroke-miterlimit:4;stroke-dasharray:none;stroke-dashoffset:0;stroke-opacity:1"
       d="m 99.853444,275.41995 c 0.792496,-1.03632 1.273456,-2.41387 2.377466,-3.10899 0.30959,-0.19492 4.53047,0 5.66933,0"
       id="path5151" />
    <path
       style="fill:#000000;fill-opacity:0.03125;fill-rule:evenodd;stroke:#000000;stroke-width:0.7;stroke-miterlimit:4;stroke-dasharray:none;stroke-dashoffset:0;stroke-opacity:1"
       d="m 100.03633,171.72598 c 0.0576,-2.87781 -1.00257,-3.69315 1.82882,-4.75492 0.12763,-0.0479 0.22945,-0.18289 0.36576,-0.18289 0.5769,0 0.49155,0.78325 0.54865,1.0973 0.57511,3.16314 -0.35872,-1.25669 0.73152,2.37746 0.28325,0.94417 0.007,2.08102 0.73153,2.92611 0.66333,0.77388 0.58304,0.38296 1.28017,0.73152 0.15427,0.0771 0.8098,0.6924 1.09729,0.54865 0.59232,-0.29616 0.36577,-1.50082 0.36577,-1.82882 0,-0.71113 0.27378,-2.24163 0,-2.92611 -0.13202,-0.33003 -0.8,-0.66306 -0.54865,-0.9144 0.0862,-0.0862 0.24384,0 0.36576,0 0.36577,0 0.73153,0 1.09729,0 1.34114,0 2.68227,0 4.0234,0"
       id="path5153" />
    <path
       style="fill:#000000;fill-opacity:0.03125;fill-rule:evenodd;stroke:#000000;stroke-width:0.7;stroke-miterlimit:4;stroke-dasharray:none;stroke-dashoffset:0;stroke-opacity:1"
       d="m 103.69396,176.84667 c 0.95972,0.48278 2.13211,-0.0613 3.10899,0.18288 0.98557,0.2464 0.69119,0.36577 1.64594,0.36577"
       id="path5155" />
    <path
       style="fill:#000000;fill-opacity:0.03125;fill-rule:evenodd;stroke:#000000;stroke-width:0.7;stroke-miterlimit:4;stroke-dasharray:none;stroke-dashoffset:0;stroke-opacity:1"
       d="m 112.65517,201.53571 c 2.49559,-0.14742 4.83551,-0.91006 7.13239,-1.82882 0.24384,0.48769 0.58174,0.93879 0.73153,1.46306 0,0.95341 -0.0887,1.01404 0.18288,1.82882 0.32174,0.96522 1.09729,2.41129 1.09729,3.47475 -1.04454,0.20962 -2.25935,-0.25813 -3.29187,0 -1.89925,0.47482 0.39047,0.36577 -1.46305,0.36577 -0.23919,0 -0.93584,0.0382 -0.91441,0.18288 0.12354,0.83394 0.36576,1.64593 0.54864,2.4689"
       id="path5157" />
    <path
       style="fill:#000000;fill-opacity:0.03125;fill-rule:evenodd;stroke:#000000;stroke-width:0.7;stroke-miterlimit:4;stroke-dasharray:none;stroke-dashoffset:0;stroke-opacity:1"
       d="m 112.65517,201.53571 c 0.3048,0.3048 0.70055,0.54015 0.91441,0.91441 0.562,0.98349 0.67923,2.24672 1.09729,3.29187 0.15242,0.38104 0.5903,0.44908 0.73153,0.73153 0.48863,0.97727 0.83046,2.02176 1.28017,3.01755"
       id="path5159" />
    <path
       style="fill:#000000;fill-opacity:0.03125;fill-rule:evenodd;stroke:#000000;stroke-width:0.4;stroke-miterlimit:4;stroke-dasharray:none;stroke-dashoffset:0;stroke-opacity:1;marker-end:url(#Arrow1Lend)"
       d="m 93.544026,223.57296 13.258924,12.52741"
       id="path5196" />
    <path
       style="fill:#000000;fill-opacity:0.03125;fill-rule:evenodd;stroke:#000000;stroke-width:0.4;stroke-miterlimit:4;stroke-dasharray:none;stroke-dashoffset:0;stroke-opacity:1"
       d="m 100.49353,225.76755 c 0.22056,0.0968 0.44973,2.9261 0.64009,2.9261 0.0431,0 0.0722,-0.0529 0.0914,-0.0914 0.34274,-0.68547 0.52452,-1.44582 1.18873,-1.92025 0.43125,-0.30804 2.20354,-0.6371 2.74323,-0.45721 0.31521,0.10507 0.0677,0.0914 0.27432,0.0914"
       id="path5579" />
    <ellipse
       style="fill:#000000;fill-opacity:0.03125;fill-rule:evenodd;stroke:#000000;stroke-width:0.4;stroke-miterlimit:4;stroke-dasharray:none;stroke-dashoffset:0;stroke-opacity:1"
       id="path5648"
       cx="146.95982"
       cy="303.52557"
       rx="4.3891625"
       ry="11.521551"
       transform="rotate(-35.695735)" />
    <ellipse
       style="fill:#000000;fill-opacity:0.03125;fill-rule:evenodd;stroke:#000000;stroke-width:0.4;stroke-miterlimit:4;stroke-dasharray:none;stroke-dashoffset:0;stroke-opacity:1"
       id="path5648-4"
       cx="116.46619"
       cy="306.16269"
       rx="4.3891625"
       ry="11.521551"
       transform="rotate(-35.695735)" />
    <path
       style="fill:#000000;fill-opacity:0.03125;fill-rule:evenodd;stroke:#000000;stroke-width:0.4;stroke-miterlimit:4;stroke-dasharray:none;stroke-dashoffset:0;stroke-opacity:1"
       d="m 266.45875,171.17734 22.67733,-19.56835"
       id="path5785" />
    <path
       style="fill:#000000;fill-opacity:0.03125;fill-rule:evenodd;stroke:#000000;stroke-width:0.4;stroke-miterlimit:4;stroke-dasharray:none;stroke-dashoffset:0;stroke-opacity:1"
       d="m 280.17488,190.19704 23.40885,-20.48276"
       id="path5787" />
    <path
       style="fill:#000000;fill-opacity:0.03125;fill-rule:evenodd;stroke:#000000;stroke-width:0.4;stroke-miterlimit:4;stroke-dasharray:none;stroke-dashoffset:0;stroke-opacity:1"
       d="M 250.91379,198.42672 342.17178,124.3596"
       id="path5902" />
    <ellipse
       style="fill:#000000;fill-opacity:0.03125;fill-rule:evenodd;stroke:#000000;stroke-width:0.4;stroke-miterlimit:4;stroke-dasharray:none;stroke-dashoffset:0;stroke-opacity:1"
       id="path6006"
       cx="352.41318"
       cy="171.08589"
       rx="0.91440886"
       ry="1.0058497" />
    <path
       style="fill:#000000;fill-opacity:0.03125;fill-rule:evenodd;stroke:#000000;stroke-width:0.4;stroke-miterlimit:4;stroke-dasharray:none;stroke-dashoffset:0;stroke-opacity:1"
       d="m 342.17178,124.3596 c -0.1524,-0.0457 -0.29921,-0.1182 -0.4572,-0.13716 -0.22696,-0.0272 -0.4572,0 -0.6858,0 -1.30746,0 -0.63994,-0.0337 -2.14886,0.13716 -0.39635,0.0449 -0.7915,0.10105 -1.18872,0.13716 -1.07159,0.0974 -0.50951,-0.0718 -1.18875,0.18289"
       id="path6234" />
    <path
       style="fill:#000000;fill-opacity:0.03125;fill-rule:evenodd;stroke:#000000;stroke-width:0.4;stroke-miterlimit:4;stroke-dasharray:none;stroke-dashoffset:0;stroke-opacity:1"
       d="m 342.17178,124.3596 c -0.0153,0.10668 -0.0352,0.2128 -0.0457,0.32005 -0.4436,4.52525 0.22723,-0.98458 -0.9144,5.39501 -0.0564,0.31539 -0.0305,0.64009 -0.0457,0.96013"
       id="path6236" />
    <path
       style="fill:#000000;fill-opacity:0.03125;fill-rule:evenodd;stroke:#000000;stroke-width:0.4;stroke-miterlimit:4;stroke-dasharray:none;stroke-dashoffset:0;stroke-opacity:1"
       d="m 343.72629,124.58821 c -1.06741,-0.45188 -0.70646,-2.72405 0.13716,-3.3376 0.12139,-0.0883 0.30009,0.0823 0.41148,0.18289 0.36822,0.33258 0.72633,0.68733 1.00587,1.09729 0.73601,1.0795 1.08257,2.31704 2.01168,3.24615 0.10223,0.10221 0.0483,0.0914 0.13716,0.0914 0.42465,0 0.17073,0.03 0.27432,-1.00585 0.0273,-0.27296 0,-0.54865 0,-0.82297 0,-0.92966 0.10096,-1.03014 -0.27432,-1.87454 -0.3378,-0.76007 -0.47861,-0.73244 -0.9144,-1.37161 -0.0884,-0.12964 -0.14788,-0.27694 -0.2286,-0.41148 -0.007,-0.011 -0.24027,-0.30839 -0.2286,-0.32005 0.15126,-0.15125 0.42616,-0.0457 0.64008,-0.0457 0.16764,0 0.33713,-0.0249 0.50292,0 0.33009,0.0495 0.52593,0.18289 0.8687,0.18289"
       id="path6238" />
    <path
       style="fill:#000000;fill-opacity:0.03125;fill-rule:evenodd;stroke:#000000;stroke-width:0.4;stroke-miterlimit:4;stroke-dasharray:none;stroke-dashoffset:0;stroke-opacity:1"
       d="m 345.738,127.88008 c 1.69724,-0.47146 0.54083,-0.19035 3.52046,-0.59437"
       id="path6240" />
    <path
       style="fill:#000000;fill-opacity:0.03125;fill-rule:evenodd;stroke:#000000;stroke-width:0.4;stroke-miterlimit:4;stroke-dasharray:none;stroke-dashoffset:0;stroke-opacity:1"
       d="m 358.0825,173.18904 c 0,-2.32762 0.23027,-4.53912 -0.73152,-6.76663 0.48769,0.12192 0.96847,0.27584 1.46306,0.36577 0.20421,0.0371 1.47972,-0.16622 1.64594,0 0.0484,0.0484 0,0.47334 0,0.54864 0,0.97439 -0.78204,1.09729 -1.64594,1.09729"
       id="path6242" />
    <path
       style="fill:#000000;fill-opacity:0.03125;fill-rule:evenodd;stroke:#000000;stroke-width:0.4;stroke-miterlimit:4;stroke-dasharray:none;stroke-dashoffset:0;stroke-opacity:1"
       d="m 327.54125,117.22722 c -3.19664,-0.53278 0.35907,-0.0602 -6.76661,0.73152 -13.25491,1.47277 -1.7753,-0.5553 -14.81344,1.64594 -3.70769,0.62597 -10.13521,2.19458 -13.89901,2.19458"
       id="path6244" />
    <path
       style="fill:#000000;fill-opacity:0.03125;fill-rule:evenodd;stroke:#000000;stroke-width:0.4;stroke-miterlimit:4;stroke-dasharray:none;stroke-dashoffset:0;stroke-opacity:1"
       d="m 292.06219,121.79926 c 0.79248,2.13362 1.20412,4.45057 2.37746,6.40086 3.36497,5.59313 7.50271,10.68424 11.15579,16.0936 2.68745,3.97951 5.35607,7.97511 7.86392,12.07019 4.80576,7.84741 9.01322,16.04805 13.71613,23.95752 6.88991,11.58759 2.72524,4.09431 9.69272,14.63054 9.64049,14.57829 -3.10375,-3.9816 4.93781,8.22968 3.18739,4.8401 2.18633,2.66918 5.1207,7.31527 1.20311,1.90492 2.54809,5.29131 4.20629,6.94951"
       id="path6246" />
    <path
       style="fill:#000000;fill-opacity:0.03125;fill-rule:evenodd;stroke:#000000;stroke-width:0.4;stroke-miterlimit:4;stroke-dasharray:none;stroke-dashoffset:0;stroke-opacity:1"
       d="m 351.13301,217.44643 c 20.32463,-10.03687 11.60166,-6.13649 36.0277,-16.0936 7.27726,-2.96652 4.92998,-2.49808 8.59544,-3.10899"
       id="path6248" />
    <path
       style="fill:#000000;fill-opacity:0.03125;fill-rule:evenodd;stroke:#000000;stroke-width:0.4;stroke-miterlimit:4;stroke-dasharray:none;stroke-dashoffset:0;stroke-opacity:1"
       d="m 327.54125,117.22722 c 1.64592,-0.061 3.37526,-0.70373 4.93781,-0.18289 1.06638,0.35546 1.48664,1.68723 2.19459,2.56035 2.95002,3.63837 5.8551,7.31295 8.77832,10.97291 18.44905,23.0988 9.61657,11.60058 27.79802,36.39347 1.34115,1.82882 2.68227,3.65763 4.02342,5.48645 0.97536,1.46305 1.89547,2.96449 2.9261,4.38916 2.19163,3.02961 4.64021,5.65805 7.13238,8.41256 2.23784,2.4734 4.31485,5.36259 6.03509,8.22968 0.48771,0.81281 0.97539,2.04828 1.46307,2.92611 0.62841,1.13113 1.43674,2.14193 2.0117,3.29187 0.156,0.31201 0.36036,0.93057 0.36576,0.91441 0.25718,-0.77158 0.36576,-1.58497 0.54864,-2.37746"
       id="path6250" />
    <path
       style="fill:#000000;fill-opacity:0.03125;fill-rule:evenodd;stroke:#000000;stroke-width:0.4;stroke-miterlimit:4;stroke-dasharray:none;stroke-dashoffset:0;stroke-opacity:1"
       d="m 321.50616,137.34421 c 2.33709,0.82472 2.56495,3.96552 4.57205,5.30357"
       id="path6252" />
    <path
       style="fill:#000000;fill-opacity:0.03125;fill-rule:evenodd;stroke:#000000;stroke-width:0.8;stroke-miterlimit:4;stroke-dasharray:none;stroke-dashoffset:0;stroke-opacity:1"
       d="m 327.54125,135.14963 c 0.97131,-1.18254 0.68837,0.54864 1.09728,0.54864 0.7379,0 -1.58835,-1.53076 -1.09728,-0.54864 0.2,0.4 1.9463,1.3843 1.64595,0.18288 -0.13454,-0.53811 -1.32609,-0.60934 -1.64595,-0.18288 -0.0576,0.0768 -0.14914,1.49679 0.18288,1.82882 0.17243,0.17242 0.48768,0 0.73152,0 1.05691,0 1.23619,-2.60434 0.91443,-2.92611 -0.50366,-0.50365 -1.79631,0.7722 -1.82883,1.09729 -0.0442,0.4416 0.25813,0.84962 0.36576,1.28017 0.0296,0.11828 -0.0862,0.27955 0,0.36576 1.22103,1.22103 1.05984,-1.9037 0.91443,-2.19458 -0.34362,-0.68718 -0.46826,1.49222 -0.36579,1.64594 0.0198,0.03 0.85733,0.35414 0.91443,0.18288 0.10416,-0.31251 -0.0634,-1.26149 -0.36576,-1.46305 -0.15219,-0.10145 -0.36828,-0.0301 -0.54867,0 -0.3066,0.0511 -0.70972,-0.0511 -0.9144,0.18288 -0.29223,0.33399 -0.26948,0.84694 -0.36576,1.28017 -0.0265,0.11902 -0.0862,0.27955 0,0.36576 0.20217,0.20216 0.48374,0.18289 0.73152,0.18289 1.35311,0 0.32454,-2.32188 -0.36576,-1.82882 -1.37372,0.98123 0.39614,2.45372 1.28019,2.0117 0.85931,-0.42966 -0.0464,-0.91441 -0.54867,-0.91441 23.59176,33.65025 23.59176,33.46737 23.59176,33.46737"
       id="path6254" />
    <path
       style="fill:#000000;fill-opacity:0.03125;fill-rule:evenodd;stroke:#000000;stroke-width:0.799999;stroke-miterlimit:4;stroke-dasharray:none;stroke-dashoffset:0;stroke-opacity:1"
       d="m 248.17056,194.40332 c 3.04803,0 6.09606,0 9.14409,0"
       id="path6577" />
    <path
       style="fill:#000000;fill-opacity:0.03125;fill-rule:evenodd;stroke:#000000;stroke-width:0.799999;stroke-miterlimit:4;stroke-dasharray:none;stroke-dashoffset:0;stroke-opacity:1"
       d="m 252.01108,188.73399 c 0.78934,2.84406 1.86359,5.59772 2.74323,8.41256 0.50135,1.60431 0.0823,0.85504 0.73152,1.82882"
       id="path6579" />
    <ellipse
       style="fill:#000000;fill-opacity:0.03125;fill-rule:evenodd;stroke:#000000;stroke-width:0.799999;stroke-miterlimit:4;stroke-dasharray:none;stroke-dashoffset:0;stroke-opacity:1"
       id="path6683"
       cx="327.90701"
       cy="135.69827"
       rx="0.36576"
       ry="0.54864502" />
    <ellipse
       style="fill:#000000;fill-opacity:0.03125;fill-rule:evenodd;stroke:#f40000;stroke-width:0.799999;stroke-miterlimit:4;stroke-dasharray:none;stroke-dashoffset:0;stroke-opacity:1"
       id="path6685"
       cx="328.66708"
       cy="135.64539"
       rx="2.2549641"
       ry="2.3842812" />
    <rect
       style="fill:#000000;fill-opacity:0.03125;fill-rule:evenodd;stroke:#f40000;stroke-width:0.799999;stroke-miterlimit:4;stroke-dasharray:none;stroke-dashoffset:0;stroke-opacity:1"
       id="rect6899"
       width="47.549263"
       height="19.019705"
       x="269.0191"
       y="207.93658" />
    <path
       style="fill:#000000;fill-opacity:0.03125;fill-rule:evenodd;stroke:#f40000;stroke-width:0.799999;stroke-miterlimit:4;stroke-dasharray:none;stroke-dashoffset:0;stroke-opacity:1"
       d="M 279.38925,239.301 307.9683,195.52721"
       id="path6934" />
    <ellipse
       style="fill:#000000;fill-opacity:0.03125;fill-rule:evenodd;stroke:#f40000;stroke-width:0.799999;stroke-miterlimit:4;stroke-dasharray:none;stroke-dashoffset:0;stroke-opacity:1"
       id="path7038"
       cx="296.36212"
       cy="213.63158"
       rx="1.0668647"
       ry="1.3578279" />
    <path
       style="fill:#000000;fill-opacity:0.03125;fill-rule:evenodd;stroke:#f40000;stroke-width:0.799999;stroke-miterlimit:4;stroke-dasharray:none;stroke-dashoffset:0;stroke-opacity:1"
       d="m 237.92918,193.30603 c 1.35814,-2.71626 2.4871,-5.54256 3.47476,-8.41256 1.20567,1.43833 0.94991,3.10362 1.28017,4.75493 0.0478,0.23911 -0.0591,0.49496 0,0.73153 0.10692,0.42768 0.43875,0.6577 0.54865,1.09729 0.13147,0.5259 0.13037,0.86189 0.54864,1.28017"
       id="path7186" />
    <path
       style="fill:#000000;fill-opacity:0.03125;fill-rule:evenodd;stroke:#f40000;stroke-width:0.799999;stroke-miterlimit:4;stroke-dasharray:none;stroke-dashoffset:0;stroke-opacity:1"
       d="m 239.57512,189.6484 c 0.79249,0 1.58498,0 2.37746,0 0.13631,0 0.30199,-0.30336 0.36577,-0.18289 0.56183,1.06124 0.97536,2.19459 1.46305,3.29188"
       id="path7188" />
    <path
       style="fill:#000000;fill-opacity:0.03125;fill-rule:evenodd;stroke:#f40000;stroke-width:0.799999;stroke-miterlimit:4;stroke-dasharray:none;stroke-dashoffset:0;stroke-opacity:1"
       d="m 377.46797,192.39162 c 2.72782,-3.37728 7.01066,-8.74626 9.69274,-11.70443 2.11381,-2.33141 4.42421,-4.47751 6.58374,-6.76663 6.23122,-6.6051 1.4035,-1.76926 2.74322,-3.10899"
       id="path7261" />
    <path
       style="fill:#000000;fill-opacity:0.03125;fill-rule:evenodd;stroke:#f40000;stroke-width:0.799999;stroke-miterlimit:4;stroke-dasharray:none;stroke-dashoffset:0;stroke-opacity:1"
       d="m 390.81834,171.72598 c 0.42886,0 -0.0862,0.0431 0.36576,-0.18288 0.64516,-0.32258 2.97788,-1.57807 3.84053,-1.46305 0.54047,0.0721 0.97536,0.48768 1.46304,0.73152 0.28444,1.53047 0.0589,3.22385 -0.18287,4.75493 -0.38055,2.41014 -0.36576,0.85268 -0.36576,1.64594"
       id="path7263" />
    <path
       style="fill:#000000;fill-opacity:0.03125;fill-rule:evenodd;stroke:#f40000;stroke-width:0.799999;stroke-miterlimit:4;stroke-dasharray:none;stroke-dashoffset:0;stroke-opacity:1"
       d="m 374.54186,189.6484 c 2.81771,2.05496 4.67908,5.04483 7.1324,7.49815"
       id="path7265" />
  </g>
</svg>
